<?xml version="1.0" encoding="utf-8"?>
<!-- Generator: Adobe Illustrator 22.0.0, SVG Export Plug-In . SVG Version: 6.00 Build 0)  -->
<svg version="1.1" id="Layer_1" xmlns="http://www.w3.org/2000/svg" xmlns:xlink="http://www.w3.org/1999/xlink" x="0px" y="0px"
	 viewBox="0 0 372.7 284.9" style="enable-background:new 0 0 372.7 284.9;" xml:space="preserve">
<style type="text/css">
	.st0{fill:#882388;}
</style>
<path class="st0" d="M195.6,222.4c-14.3-3.6-31.1-6-52.4-6.2c17.5-28.7,29.2-52.4,32.5-78.9c1.7-12.2-14.6-21.8-28.5,10.8
	c-6.7,16-50.2,41.4-81.8,31.1c-28-9.1-37.3-48.5-16.3-94c15.3,10.3,39.7,17,62.9,16.5c101.2-1.4,117.4-89.2,43.5-100.7
	c-38.5-6-86.8,17.5-112.2,58.8c-1.9,3.1-3.8,6.2-5.3,9.3C23.6,51.6,20.7,28.7,36.5,8.8c3.8-5,0.2-5.5-3.1-1.9
	c-22,22.5-17.5,50.2,1,69.4c-25.8,54.3-6.9,100.4,23,110.7c39.5,13.2,84.7-20.1,99-33.7l-1,4.1c-5,22.2-12.4,39-24.2,58.8
	c-15.1,0.2-38.3,1.9-50.7,3.8c-59.5,8.4-107.6,46.6-63.1,62.9c26.8,9.8,91.8-16.3,122.4-60.5c19.1-0.2,42.8,1.4,53.8,4.3
	C202.7,228.8,202.5,224.1,195.6,222.4z M156.8,8.1c58.6,8.8,39.7,78-40.9,86.1c-24.4,2.4-48.8-4.1-63.6-15.3
	c2.2-4.3,4.8-8.8,7.4-13.2C82.2,28.9,124.3,3.3,156.8,8.1z M127.4,222.6c-28,40.2-82.5,58.8-103.8,54c-35.2-7.4,17.5-43.8,59.8-50.2
	C96.8,224.3,112.3,223.1,127.4,222.6z"/>
<path class="st0" d="M229,95.6c1-5.5-2.9-9.8-8.4-9.8c-5.3,0-10.5,4.3-11.5,9.8c-0.7,5.5,2.9,9.8,8.4,9.8S228.1,101.1,229,95.6z
	 M195.3,175.3c0.5-1.7,2.9-6.9,2.9-6.9l19.1-44.7c2.6-5.7,2.6-8.4-5-8.4l-13.2,0.2c1,1.2,4.3,5.5,2.4,10l-15.3,39
	c-5,12.4-5,31.1,12.9,31.1c17.7,0,31.3-30.4,37.5-43.8c2.2-4.8-1.2-6.5-3.1-2.2c-6.7,13.4-14.6,28.2-22.5,36.1
	c-2.6,2.4-7.2,5-10.8,4.5C193.6,189.9,193.1,183.2,195.3,175.3z"/>
<path class="st0" d="M330.9,151.6c2.4-4.8-1.4-6.2-3.6-1.9c-2.4,4.5-6,14.8-13.9,25.3c-4.8,6.5-11,11.5-16.7,15.5
	c5-18.9,6.2-39,3.1-58.1c-3.8,2.9-11.5-1.4-14.8,9.6c-4.5,15.1-27.7,51.7-41.9,45.7c-12.4-5.5,1-34.4,18.4-54
	c14.6-16.3,32.3-25.8,38.5-8.8c2.6,7.2,11,0,2.6-6.9c-17.9-14.1-41.4-6-55.5,11c-17.7,21-32,55.5-8.1,65.8
	c19.1,5.7,38.3-26.5,45.9-41.4c0.7,2.6,0.7,10.3-0.2,19.6c-1,9.6-2.6,18.2-5.5,26.5c-18.4,7.4-40.2,12-63.6,25.8
	c-11.5,6.7-20.8,15.8-20.8,27.5c0,12.4,7.4,18.4,22.5,18.4c34.7,0,66.2-42.6,76.8-72.7C311.8,190.1,318.7,176.7,330.9,151.6z
	 M276.8,206.4c-3.3,8.1-7.9,16-13.6,24.2c-6.7,8.8-14.1,17.5-21.5,23.4c-5.7,4.3-19.8,12.4-30.1,12.4c-19.8,0-11.2-23.9,4.3-34.2
	c15.1-10,35.2-17,52.6-23L276.8,206.4z"/>
<path class="st0" d="M364.4,95.6c1-5.5-2.9-9.8-8.4-9.8c-5.3,0-10.5,4.3-11.5,9.8c-0.7,5.5,2.9,9.8,8.4,9.8S363.4,101.1,364.4,95.6z
	 M330.6,175.3c0.5-1.7,2.9-6.9,2.9-6.9l19.1-44.7c2.6-5.7,2.6-8.4-5-8.4l-13.2,0.2c1,1.2,4.3,5.5,2.4,10l-15.3,39
	c-5,12.4-5,31.1,12.9,31.1c17.7,0,31.3-30.4,37.5-43.8c2.2-4.8-1.2-6.5-3.1-2.2c-6.7,13.4-14.6,28.2-22.5,36.1
	c-2.6,2.4-7.2,5-10.8,4.5C329,189.9,328.5,183.2,330.6,175.3z"/>
</svg>
